<svg width="35" height="20" viewBox="0 0 35 20" fill="none" xmlns="http://www.w3.org/2000/svg">
<g clip-path="url(#clip0_71_11)">
<path d="M34.6657 13.3366L33.8769 14.3512H33.4167L33.5463 10.8389C33.5572 10.5179 33.5077 10.1979 33.4006 9.89748L30.9659 2.99232C30.8016 2.53105 30.5088 2.13359 30.1264 1.85262C29.744 1.57164 29.2901 1.42044 28.8247 1.41904H24.6508L23.8934 0.518577C23.7561 0.355357 23.5879 0.224779 23.3996 0.135409C23.2113 0.0460392 23.0073 -0.000151152 22.8009 4.79962e-07H20.718C20.4128 -0.000254262 20.1151 0.100901 19.8669 0.289128C19.6187 0.477356 19.4324 0.743237 19.3342 1.04944L19.2155 1.41904H0V2.8851H28.8276C29.0108 2.88542 29.1897 2.94459 29.3405 3.05479C29.4913 3.165 29.6071 3.32106 29.6725 3.50239L32.1072 10.4067C32.1493 10.5254 32.1684 10.6519 32.1633 10.7787L32.0132 14.862C32.0047 15.1089 31.906 15.3425 31.7379 15.5137C31.5698 15.6849 31.3455 15.7802 31.1123 15.7794H27.9282C27.7499 15.7796 27.5756 15.7239 27.4273 15.6191C27.2789 15.5143 27.1633 15.3652 27.095 15.1907L26.4912 13.6475C26.3343 13.244 26.0676 12.8992 25.7251 12.657C25.3825 12.4147 24.9797 12.2859 24.5678 12.2871H24.5612L5.85336 12.3643C5.46486 12.3641 5.08415 12.4798 4.75481 12.6981C4.42547 12.9164 4.1608 13.2286 3.99109 13.5989L3.6903 14.2447C3.61545 14.4045 3.50013 14.539 3.35724 14.6333C3.21434 14.7276 3.04951 14.7779 2.88116 14.7787H0V16.2447H2.88116C3.24969 16.243 3.61246 16.1477 3.93894 15.9665C4.26541 15.7854 4.54606 15.5238 4.75727 15.2038C4.51709 16.1252 4.61461 17.1088 5.03028 17.9572C5.44594 18.8056 6.14901 19.4562 6.99847 19.7784C7.84793 20.1006 8.78095 20.0705 9.61041 19.6944C10.4399 19.3182 11.1044 18.6237 11.4707 17.7501H9.84299C9.54763 18.1021 9.15824 18.3506 8.72649 18.4627C8.29474 18.5748 7.84102 18.5452 7.42552 18.3778C7.01002 18.2104 6.65237 17.9131 6.40002 17.5254C6.14766 17.1377 6.01252 16.6779 6.01252 16.2069C6.01252 15.7359 6.14766 15.2761 6.40002 14.8884C6.65237 14.5007 7.01002 14.2035 7.42552 14.0361C7.84102 13.8687 8.29474 13.839 8.72649 13.9511C9.15824 14.0632 9.54763 14.3117 9.84299 14.6637H11.4686C11.3386 14.3571 11.1708 14.0702 10.9697 13.8103L12.4809 13.8034C12.2771 14.0648 12.1076 14.3542 11.9769 14.6637H13.6047C13.8101 14.4187 14.0621 14.2226 14.3443 14.0883C14.6264 13.954 14.9322 13.8845 15.2415 13.8845C15.5508 13.8845 15.8566 13.954 16.1388 14.0883C16.4209 14.2226 16.673 14.4187 16.8784 14.6637H18.5069C18.3718 14.3453 18.1961 14.048 17.9847 13.7802L19.5425 13.7732C19.3284 14.0427 19.1507 14.3424 19.0145 14.6637H20.6452C20.9406 14.3115 21.3301 14.0627 21.762 13.9505C22.1939 13.8382 22.6479 13.8678 23.0636 14.0352C23.4793 14.2026 23.8371 14.5 24.0896 14.8879C24.3421 15.2757 24.4773 15.7357 24.4773 16.2069C24.4773 16.6781 24.3421 17.1381 24.0896 17.526C23.8371 17.9139 23.4793 18.2112 23.0636 18.3786C22.6479 18.546 22.1939 18.5756 21.762 18.4633C21.3301 18.3511 20.9406 18.1023 20.6452 17.7501H19.0167C19.3504 18.5426 19.9307 19.1896 20.6607 19.5831C21.3906 19.9767 22.226 20.0928 23.027 19.9121C23.8281 19.7314 24.5463 19.2649 25.0617 18.5904C25.577 17.916 25.8583 17.0746 25.8583 16.2069C25.8583 16.0716 25.8512 15.9363 25.8372 15.8018C26.0154 16.2315 26.3079 16.5968 26.679 16.8531C27.0502 17.1094 27.4837 17.2455 27.9267 17.2447H31.1123C31.5564 17.2461 31.9913 17.1099 32.3633 16.8528C32.7353 16.5958 33.0283 16.2291 33.2062 15.798H33.9301L34.6672 16.6367C34.693 16.6659 34.7265 16.6862 34.7633 16.695C34.8001 16.7038 34.8386 16.7007 34.8738 16.6861C34.9089 16.6714 34.9391 16.646 34.9604 16.613C34.9818 16.58 34.9933 16.5409 34.9934 16.5009L35 13.4662C35.0005 13.4248 34.9889 13.3842 34.9667 13.3501C34.9445 13.316 34.9129 13.2901 34.8762 13.2758C34.8395 13.2616 34.7995 13.2598 34.7618 13.2706C34.7241 13.2815 34.6905 13.3046 34.6657 13.3366Z" fill="#1D1D1D"/>
<path d="M15.2442 18.5273C14.9347 18.5275 14.6287 18.4581 14.3465 18.3236C14.0642 18.1892 13.8122 17.9926 13.607 17.7472H11.9785C12.2595 18.416 12.7174 18.9842 13.2969 19.3829C13.8763 19.7817 14.5525 19.9939 15.2435 19.9939C15.9344 19.9939 16.6106 19.7817 17.1901 19.3829C17.7695 18.9842 18.2275 18.416 18.5084 17.7472H16.8807C16.6756 17.9926 16.4236 18.189 16.1415 18.3235C15.8594 18.458 15.5536 18.5274 15.2442 18.5273Z" fill="#1D1D1D"/>
<path d="M22.9757 16.2039C22.9757 16.0095 22.9028 15.8231 22.7731 15.6857C22.6433 15.5482 22.4673 15.4709 22.2838 15.4709H8.2058C8.0223 15.4709 7.84632 15.5482 7.71657 15.6857C7.58681 15.8231 7.51392 16.0095 7.51392 16.2039C7.51392 16.3983 7.58681 16.5848 7.71657 16.7223C7.84632 16.8598 8.0223 16.937 8.2058 16.937H22.2816C22.3727 16.9373 22.4629 16.9186 22.5471 16.8819C22.6313 16.8452 22.7078 16.7912 22.7723 16.7231C22.8368 16.655 22.8879 16.5741 22.9228 16.485C22.9578 16.3959 22.9757 16.3004 22.9757 16.2039Z" fill="#1D1D1D"/>
<path d="M0 10.3448V6.26729H1.28678V7.45594L1.09483 7.1174C1.20858 6.81146 1.39342 6.58326 1.64935 6.4328C1.90529 6.27733 2.21573 6.19958 2.58067 6.19958V7.48603C2.51906 7.476 2.46455 7.47098 2.41716 7.47098C2.3745 7.46597 2.3271 7.46346 2.27497 7.46346C2.00008 7.46346 1.77732 7.54371 1.6067 7.7042C1.43607 7.85967 1.35076 8.11546 1.35076 8.47155V10.3448H0Z" fill="#1D1D1D"/>
<path d="M5.12232 10.4125C4.66733 10.4125 4.26921 10.3223 3.92796 10.1417C3.59146 9.95609 3.32842 9.70532 3.13883 9.38935C2.95399 9.06837 2.86157 8.70476 2.86157 8.29852C2.86157 7.89227 2.95162 7.53117 3.13172 7.2152C3.31657 6.89422 3.57013 6.64596 3.89242 6.47042C4.21471 6.28986 4.57728 6.19958 4.98014 6.19958C5.3593 6.19958 5.70528 6.28233 6.01809 6.44784C6.3309 6.60833 6.57973 6.84657 6.76457 7.16254C6.94941 7.47851 7.04183 7.86217 7.04183 8.31355C7.04183 8.36371 7.03946 8.4214 7.03472 8.4866C7.02998 8.55179 7.02524 8.61197 7.0205 8.66714H3.97062V7.91483H6.30246L5.7906 8.12549C5.79534 7.93992 5.76216 7.77943 5.69107 7.64401C5.62471 7.5086 5.52992 7.40328 5.40669 7.32805C5.28821 7.25281 5.14839 7.2152 4.98725 7.2152C4.8261 7.2152 4.68392 7.25281 4.56069 7.32805C4.4422 7.40328 4.34978 7.51111 4.28343 7.65154C4.21707 7.78695 4.1839 7.94744 4.1839 8.13301V8.35118C4.1839 8.55179 4.22181 8.72482 4.29765 8.87027C4.37822 9.01572 4.49197 9.12856 4.63889 9.20881C4.78582 9.28404 4.96118 9.32164 5.16498 9.32164C5.35456 9.32164 5.5157 9.29407 5.64841 9.2389C5.78586 9.17872 5.92093 9.08844 6.05364 8.96807L6.76457 9.75047C6.57973 9.96613 6.35223 10.1317 6.08208 10.247C5.81192 10.3574 5.49201 10.4125 5.12232 10.4125Z" fill="#1D1D1D"/>
<path d="M9.34251 10.4125C8.99179 10.4125 8.67187 10.3273 8.38276 10.1568C8.09839 9.98118 7.87089 9.73794 7.70027 9.42699C7.52965 9.11102 7.44434 8.73487 7.44434 8.29853C7.44434 7.86721 7.52965 7.49607 7.70027 7.18512C7.87089 6.86915 8.09839 6.6259 8.38276 6.45538C8.67187 6.28486 8.99179 6.19959 9.34251 6.19959C9.67428 6.19959 9.95391 6.27483 10.1814 6.42529C10.4136 6.57575 10.589 6.80646 10.7075 7.11741C10.826 7.42836 10.8852 7.82207 10.8852 8.29853C10.8852 8.78502 10.8283 9.18374 10.7146 9.49469C10.6008 9.80565 10.4302 10.0364 10.2027 10.1868C9.97524 10.3373 9.6885 10.4125 9.34251 10.4125ZM9.62689 9.27653C9.77855 9.27653 9.91363 9.2389 10.0321 9.16367C10.1553 9.08844 10.2525 8.9781 10.3236 8.83266C10.3947 8.68219 10.4302 8.50416 10.4302 8.29853C10.4302 8.0929 10.3947 7.91987 10.3236 7.77944C10.2525 7.63399 10.1553 7.52365 10.0321 7.44842C9.91363 7.37319 9.77855 7.33558 9.62689 7.33558C9.47048 7.33558 9.33067 7.37319 9.20744 7.44842C9.08895 7.52365 8.99416 7.63399 8.92307 7.77944C8.85197 7.91987 8.81643 8.0929 8.81643 8.29853C8.81643 8.50416 8.85197 8.68219 8.92307 8.83266C8.99416 8.9781 9.08895 9.08844 9.20744 9.16367C9.33067 9.2389 9.47048 9.27653 9.62689 9.27653ZM10.4729 10.3448V9.64514L10.48 8.29853L10.4089 6.9519V4.7627H11.7596V10.3448H10.4729Z" fill="#1D1D1D"/>
<path d="M12.6926 10.3448V5.07874H14.9675C15.4225 5.07874 15.8136 5.15648 16.1406 5.31196C16.4723 5.46743 16.7283 5.69313 16.9084 5.98903C17.0885 6.27992 17.1785 6.62598 17.1785 7.02721C17.1785 7.42343 17.0885 7.76698 16.9084 8.05787C16.7283 8.34375 16.4723 8.56441 16.1406 8.71989C15.8136 8.87035 15.4225 8.94559 14.9675 8.94559H13.4746L14.1002 8.32118V10.3448H12.6926ZM15.7709 10.3448L14.5339 8.4265H16.0339L17.2781 10.3448H15.7709ZM14.1002 8.47916L13.4746 7.79456H14.8822C15.1761 7.79456 15.3941 7.72686 15.5363 7.59144C15.6832 7.45603 15.7567 7.26795 15.7567 7.02721C15.7567 6.78146 15.6832 6.59088 15.5363 6.45546C15.3941 6.32005 15.1761 6.25234 14.8822 6.25234H13.4746L14.1002 5.56774V8.47916Z" fill="#1D1D1D"/>
<path d="M20.2096 10.3448V9.58496L20.1172 9.39688V7.9976C20.1172 7.77191 20.0508 7.59887 19.9181 7.47851C19.7901 7.35312 19.584 7.29043 19.2996 7.29043C19.1148 7.29043 18.9275 7.32303 18.738 7.38823C18.5484 7.44841 18.3872 7.53368 18.2545 7.64401L17.7995 6.67354C18.0176 6.52308 18.2782 6.40773 18.5816 6.32748C18.8896 6.24222 19.1953 6.19958 19.4987 6.19958C20.1243 6.19958 20.6077 6.35256 20.949 6.65849C21.2949 6.95942 21.4679 7.43337 21.4679 8.08035V10.3448H20.2096ZM19.0721 10.4125C18.764 10.4125 18.5034 10.3574 18.2901 10.247C18.0768 10.1367 17.9133 9.98618 17.7995 9.7956C17.6905 9.60501 17.636 9.39187 17.636 9.15615C17.636 8.90538 17.6953 8.68972 17.8138 8.50916C17.937 8.3236 18.1242 8.18315 18.3754 8.08786C18.6266 7.98756 18.9512 7.93741 19.3494 7.93741H20.2594V8.68219H19.5342C19.3162 8.68219 19.1622 8.71981 19.0721 8.79504C18.9868 8.87027 18.9441 8.97057 18.9441 9.09595C18.9441 9.22134 18.9892 9.32165 19.0792 9.39688C19.1693 9.47212 19.2925 9.50973 19.4489 9.50973C19.5958 9.50973 19.7285 9.47212 19.847 9.39688C19.9702 9.31664 20.0603 9.19627 20.1172 9.03578L20.302 9.56239C20.2309 9.84325 20.0911 10.0564 19.8826 10.2019C19.6788 10.3423 19.4086 10.4125 19.0721 10.4125Z" fill="#1D1D1D"/>
<path d="M22.3207 10.3448V6.26729H23.6715V10.3448H22.3207ZM22.9961 5.81591C22.7497 5.81591 22.5506 5.74319 22.3989 5.59774C22.2473 5.4523 22.1714 5.27174 22.1714 5.05608C22.1714 4.84042 22.2473 4.65987 22.3989 4.51442C22.5506 4.36898 22.7497 4.29626 22.9961 4.29626C23.2426 4.29626 23.4416 4.36647 23.5933 4.5069C23.745 4.64232 23.8208 4.81785 23.8208 5.03352C23.8208 5.25921 23.745 5.44728 23.5933 5.59774C23.4464 5.74319 23.2473 5.81591 22.9961 5.81591Z" fill="#1D1D1D"/>
<path d="M24.5493 10.3448V4.7627H25.9001V10.3448H24.5493Z" fill="#1D1D1D"/>
</g>
<defs>
<clipPath id="clip0_71_11">
<rect width="35" height="20" fill="white"/>
</clipPath>
</defs>
</svg>
